<?xml version="1.0" encoding="UTF-8"?>
<svg xmlns="http://www.w3.org/2000/svg" viewBox="0 0 68.13 64">
  <defs>
    <style>
      .cls-1 {
        fill: #fccead;
      }

      .cls-1, .cls-2, .cls-3 {
        stroke-width: 0px;
      }

      .cls-2 {
        fill: #1b2629;
      }

      .cls-3 {
        fill: #22282d;
        opacity: 0;
      }
    </style>
  </defs>
  <g id="_图层_5" data-name="图层 5">
    <circle class="cls-2" cx="36.13" cy="32" r="30"/>
  </g>
  <g id="_图层_2" data-name="图层 2">
    <g id="_1" data-name="1">
      <path class="cls-1" d="m19,45.66s3.79,1.39,8.2,1.22c0,0,12-.31,17.61.35,0,0,3.74-1.03,6.8-1.57,0,0,5.34-.52,4.18-5.23,0,0-1.36-1.49-5.41-1.74,0,0-1.99.17-4.18,1.05,0,0-3.59-1.71-8.37-1.4,0,0,.68-.91.7-3.49,0,0,1.81-.84,3.49-2.27,0,0,5.27-1.12,7.85-2.27,0,0,3.31,2.48,5.75,3.49,0,0,2.29,2.76,4.71,2.62,0,0,3.44.09,2.44-2.79,0,0,4.58,1.22,2.96-2.27,0,0-7.15-5.75-8.72-7.32,0,0-1.4-1.61-4.71-3.84,0,0-2.89-1.57-5.06-.7,0,0-2.37-2.34-5.41-1.05,0,0-3.03-1.57-5.23-.7,0,0-6.55,1.53-8.37,1.74,0,0-10.13,3-12.9,3.49,0,0-1.64-.91-3.66-.7,0,0-2.49.37-3.49,1.57l-.94.02c-.72,2.58-1.12,5.3-1.12,8.11,0,4.8,1.13,9.34,3.14,13.36,1.12-.1,1.94-.17,2.4-.22,0,0,6.08.51,7.32.52Z"/>
    </g>
  </g>
  <g id="_图层_4" data-name="图层 4">
    <rect class="cls-3" x="65.13" y="61" width="3" height="3"/>
    <rect class="cls-3" x="4.13" width="3" height="3"/>
  </g>
</svg>