<?xml version="1.0" encoding="UTF-8"?>
<svg xmlns="http://www.w3.org/2000/svg" viewBox="0 0 64 64">
  <defs>
    <style>
      .cls-1 {
        fill: #fff;
        stroke-width: 0px;
      }
    </style>
  </defs>
  <g id="_图层_4" data-name="图层 4">
    <rect class="cls-1" x="28" y="46" width="6" height="9"/>
  </g>
  <g id="_图层_5" data-name="图层 5">
    <ellipse class="cls-1" cx="32" cy="52" rx="30" ry="6"/>
  </g>
  <g id="_图层_2" data-name="图层 2">
    <path class="cls-1" d="m51,52.1c-3.53,0-7.06,0-10.58,0-.28,0-.61-.15-.73.36-.49,2.06-1.88,3.36-3.74,4.2-3.38,1.52-6.6,1.15-9.61-.98-1.03-.73-1.74-1.75-2.04-2.98-.13-.55-.38-.62-.87-.62-5.8.02-11.6.01-17.4,0-1.23,0-2.46-.06-3.69,0-.64.03-.92-.16-1.1-.79-.93-3.22-.97-6.48-.54-9.76.28-2.17.89-4.27,1.62-6.34.52-1.49,1.3-2.8,2.34-3.97.3-.34.42-.63.33-1.13-1.04-5.57-1.34-11.18-.69-16.82.17-1.43.47-2.84,1.08-4.16.61-1.34,1.12-1.61,2.59-1.36,1.08.19,2.12.54,3.12.98,3.7,1.62,7.06,3.75,9.95,6.59.21.21.38.36.75.29,3.07-.63,6.17-.42,9.26-.15,1.08.09,2.13-.09,3.19-.14,2.27-.1,4.57-.33,6.79.11,1.36.26,2.12-.14,3.08-1,3.27-2.93,6.96-5.21,11.2-6.46,2.37-.7,3.06-.31,3.8,2.02,1.18,3.73,1.18,7.58,1.04,11.43-.11,3.02-.43,6.02-1.04,8.98-.06.28-.16.57.09.83,2.08,2.25,2.82,5.1,3.5,7.96.94,3.98,1.03,7.98-.06,11.96-.19.69-.46.96-1.23.95-3.47-.06-6.95-.02-10.42-.02,0,0,0,.02,0,.03Zm-5.84-27.89c-.9-1.01-2.42-1.16-3.47-.35-1.07.83-1.35,2.29-.64,3.44.7,1.14,2.16,1.55,3.36.93,1.19-.61,1.73-2.04,1.23-3.27-.05-.12-.45-.71-.48-.75Zm-13.12,29.95c0-.49,0-.74,0-.99.04-2.46.1-4.92.12-7.37,0-.65.23-1.2.7-1.55,1.28-.97,3.89-1.31,5.19.49.64.89,1.18,1.86,1.43,2.94.17.76.46.62.95.34,2.45-1.4,4.01-3.47,4.73-6.18.12-.47.33-.77.75-1.03,1.24-.76,1.75-1.96,1.84-3.37.01-.17.08-.43-.21-.42-.2,0-.19.22-.2.38,0,.11,0,.21-.02.32-.16,1.67-1.12,2.85-2.76,3.23-1.75.41-3.45.2-5.04-.67-.99-.54-1.89-1.2-2.72-1.97-.82-.76-1.73-1.31-2.89-1.41-1.57-.13-1.55-.14-1.57-1.72,0-.45.1-.63.56-.77,2.63-.76,4.12-2.53,4.49-5.25.24-1.73-.14-2.39-1.81-2.94-1.62-.54-3.3-.63-4.99-.46-1.09.11-2.17.31-3.16.82-.75.38-1.18.94-1.23,1.82-.1,1.84.53,3.35,1.97,4.5.95.77,2.05,1.24,3.22,1.55.27.07.57.12.47.49-.17.63.11,1.34-.36,1.91,0,.01-.05,0-.08,0-.46-.08-.91.18-1.33.14-1.32-.11-2.31.44-3.19,1.31-1.38,1.37-2.98,2.35-4.9,2.69-1.45.26-2.89.31-4.18-.61-.91-.65-1.45-1.55-1.75-2.61-.04-.16-.02-.45-.29-.38-.26.06-.14.3-.09.47.35,1.29,1.02,2.35,2.2,3.02.4.23.61.51.73.96.76,2.82,2.42,4.96,5.02,6.33.39.21.62.33.74-.29.15-.76.54-1.44.87-2.14,1.18-2.48,3.29-2.55,5.02-1.89.95.37,1.45,1.04,1.46,2.05.02,2.4.05,4.81.08,7.21,0,.27-.05.57.24,1.04Zm-12-30.81c-1.45,0-2.59,1.15-2.58,2.59,0,1.43,1.19,2.59,2.62,2.57,1.41-.02,2.51-1.15,2.52-2.57,0-1.47-1.1-2.6-2.56-2.59Z"/>
  </g>
</svg>