<?xml version="1.0" encoding="UTF-8"?>
<svg id="Icon_BlindBox" xmlns="http://www.w3.org/2000/svg" viewBox="0 0 59.28 62">
  <defs>
    <style>
      .cls-1 {
        fill: #fff;
        stroke-width: 0px;
      }
    </style>
  </defs>
  <path class="cls-1" d="m18.34,18.99c0,2.46-.04,4.62,0,6.79.12,4.69,2.21,6.71,6.86,6.71,3.2,0,6.39,0,9.59,0,3.81,0,5.93-1.99,6.11-5.82.09-1.96.06-3.92.03-5.88-.02-1.27.45-1.83,1.79-1.82,4.94.05,9.88.05,14.82,0,1.38-.01,1.73.65,1.73,1.87-.02,12.71,0,25.43-.03,38.14,0,2.41-.75,3.01-3.48,3.02-10.75.02-21.5,0-32.26,0-6.61,0-13.22.01-19.83,0-2.85,0-3.66-.77-3.66-3.62C0,45.95,0,33.53,0,21.1c0-1.01-.15-2.13,1.44-2.12,5.51.02,11.02,0,16.9,0Z"/>
  <path class="cls-1" d="m56.53,10.42c-4.85,0-9.7,0-14.56,0-.64,0-1.13-.25-1.34-.9-1.01-3.07-2.01-6.15-3.09-9.43,3.87,0,7.41,0,10.95,0,.68,0,1.36.2,1.76.74,2.25,2.99,4.46,6.01,6.68,9.02-.13.19-.27.38-.4.57Z"/>
  <path class="cls-1" d="m2.6,9.74C4.72,6.83,6.83,3.91,8.99,1.02c.28-.37.8-.76,1.24-.79,3.73-.31,7.46-.32,11.62.03-1.1,3.29-2.09,6.28-3.12,9.26-.17.5-.58.86-1.15.86-4.89,0-9.78,0-14.67,0-.1-.22-.21-.44-.31-.66Z"/>
</svg>