<?xml version="1.0" encoding="UTF-8"?>
<svg id="TabIcon_Debug" xmlns="http://www.w3.org/2000/svg" viewBox="0 0 64 64" data-normalized-viewbox="64">
  <defs>
    <style>
      .cls-1 {
        fill: #b7b7b7;
        stroke-width: 0px;
      }
    </style>
  </defs>
  
  <g transform="translate(0.96 1)">
<path class="cls-1" d="m52.74,44.28c-2.56-2.56-5.15-5.1-7.65-7.72-.35-.37-.5-1.21-.36-1.73,2.14-8.09-2.61-16.29-10.59-18.16-8.21-1.93-16.46,3.29-18.1,11.44-2.05,10.24,6.28,18.79,16.94,17.34.86-.12,1.39.03,1.98.65,2.19,2.3,4.44,4.56,6.76,6.94-.95.39-1.71.79-2.51,1.02-1.49.43-1.99,1.48-2.03,2.9-.15,4.47-.77,5.06-5.24,5.05-1.34,0-2.67.02-4.01,0-2.14-.04-3.64-1.23-3.45-3.32.26-3.04-1.02-4.47-3.77-5.38-2.48-.82-2.58-1.01-4.52.8-.38.36-.76.72-1.17,1.05-1.41,1.13-2.93,1.1-4.25-.16-1.31-1.25-2.58-2.55-3.81-3.88-1.25-1.35-1.43-3-.09-4.22,2.43-2.19,2.79-4.36,1.17-7.24-1.07-1.9-1.29-2.4-3.5-2.41-3.66-.02-4.5-.87-4.52-4.58,0-1.43-.03-2.86.01-4.29.06-2.18,1.35-3.43,3.52-3.47.57-.01,1.15,0,1.72,0,1.1-.01,2.16-.45,2.31-1.53.28-1.93,2.78-3.56.87-5.79-.59-.69-1.26-1.3-1.84-2-1.22-1.47-1.22-2.85.05-4.23,1.29-1.41,2.62-2.78,3.99-4.1,1.31-1.27,2.97-1.47,4.2-.12,2.22,2.44,4.41,2.73,7.24,1.05,1.83-1.08,2.2-1.17,2.23-3.32,0-.52-.01-1.05.03-1.57.18-2.01,1.31-3.16,3.32-3.22,2.1-.07,4.2-.07,6.3-.02,1.97.05,3.15,1.31,3.21,3.28.01.38,0,.76,0,1.15.01,2.48.34,2.56,2.46,3.77,2.7,1.54,4.73,1.3,6.88-.98,1.59-1.69,3.2-1.43,4.87.23,1.22,1.21,2.44,2.42,3.6,3.68,1.32,1.44,1.46,3.04,0,4.3-2.43,2.08-2.74,4.17-1.23,6.97,1.08,1.99,1.31,2.44,3.62,2.44.48,0,.96-.02,1.43,0,1.87.1,3.21,1.42,3.26,3.3.04,1.86.04,3.72,0,5.58-.04,2.11-1.39,3.42-3.53,3.47-.62.01-1.24-.02-1.86,0-1.34.07-2.38.52-2.72,2.02-.17.78-.64,1.5-.81,2.28-.17.8-.12,1.64-.16,2.46-.08.09-.16.19-.24.28Z"/>
  <path class="cls-1" d="m20.23,31.07c.41-1.01.82-2.02,1.23-3.03.77.57,1.59,1.08,2.29,1.72,1.02.93,1.94,1.97,2.91,2.95.9.9,1.9.85,2.79.08,1.04-.9,2.02-1.89,2.97-2.89.77-.82.76-1.68-.07-2.51-1.35-1.35-2.7-2.7-4-4.09-.33-.35-.79-1.04-.66-1.26.24-.4.85-.73,1.35-.82,6.22-1.12,12.09,4.42,11.06,10.66-.35,2.13.2,3.38,1.67,4.8,5.22,5.03,10.29,10.2,15.42,15.32,2.08,2.08,2.22,4.91.32,6.87-1.97,2.04-4.81,1.99-6.96-.2-5.34-5.45-10.66-10.91-15.95-16.41-.95-.99-1.87-1.44-3.34-1.36-5.98.35-10.78-4.07-11.04-9.83Z"/>
  </g>
</svg>
