<?xml version="1.0" encoding="UTF-8"?>
<svg id="TabIcon_Eyewear" xmlns="http://www.w3.org/2000/svg" viewBox="0 0 64 64" data-normalized-viewbox="64">
  <defs>
    <style>
      .cls-1 {
        fill: #b7b7b7;
        stroke-width: 0px;
      }
    </style>
  </defs>
  
  <g transform="translate(1 14.99)">
<path class="cls-1" d="m55.04,11.53c-.7-2.11-1.62-4.1-3.11-5.78-1.42-1.61-2.8-1.88-4.74-.99-1.25.57-2.43.25-2.99-.81-.58-1.1-.19-2.4,1.06-3.02,2.86-1.43,5.61-1.03,8.18.78,2.03,1.44,3.37,3.46,4.47,5.64.62,1.22,1.12,2.5,1.66,3.76.35.82.48,1.77,1.51,2.09.03,0,.05.05.08.07,1.45,1.36.94,5.32-.85,6.19-.65.32-.86.75-.98,1.4-.28,1.52-.5,3.08-.97,4.55-1.7,5.27-5.51,8.2-11.04,8.56-3.8.25-7.36-.42-10.29-3.09-2.48-2.26-3.49-5.25-4.04-8.44-.32-1.88-1.39-2.59-3.21-2.13-1.06.27-1.35,1.05-1.56,1.98-.33,1.4-.62,2.83-1.14,4.17-1.79,4.59-5.27,7.05-10.12,7.49-3.68.33-7.13-.34-10.06-2.81-2.53-2.13-3.54-5.03-4.1-8.15-.08-.43-.18-.86-.18-1.29,0-1.04-.19-1.93-1.39-2.23-.16-.04-.3-.19-.43-.32-1.36-1.33-.85-5.11.79-6.05.33-.19.62-.48.85-.78,2.88-3.7,6-7.15,9.87-9.84C14.82.73,17.58-.39,20.74.13c.84.14,1.68.44,2.43.85,1.11.61,1.41,1.85.86,2.89-.56,1.07-1.68,1.46-2.87.85-1.6-.82-3.16-.68-4.69.06-3.29,1.6-5.7,4.23-7.97,6.83,3.19-.07,6.4-.24,9.6-.17,2.88.06,5.79.54,8.09,2.38,1.42,1.13,2.74,1.36,4.46,1.38,1.77.01,3.1-.32,4.56-1.42,2.55-1.93,5.71-2.47,8.83-2.52,3.6-.06,7.21.27,10.82.42.05.04.1.07.16.11.01-.09.03-.17.04-.26Zm-8.84,3.52c-1.93.37-4.01.64-6.01,1.2-1.93.54-2.69,1.72-2.68,3.71,0,1.08.04,2.18.27,3.23.72,3.21,2.39,5.7,5.82,6.41,3.43.72,6.62.24,8.85-2.8,1.62-2.21,2.11-4.79,1.84-7.51-.17-1.69-1.05-2.88-2.7-3.28-1.71-.41-3.46-.63-5.39-.96Zm-22.12,5.39c-.15-1.73-.53-3.24-2.23-3.9-3.99-1.53-8.05-1.52-12.08-.15-1.3.44-2.1,1.46-2.22,2.82-.11,1.25-.13,2.53.03,3.76.51,3.83,3.02,6.32,6.75,6.83,3.81.52,7-1.16,8.49-4.71.62-1.47.85-3.1,1.26-4.66Z"/>
  <path class="cls-1" d="m46.2,15.05c1.93.34,3.69.55,5.39.96,1.65.4,2.53,1.58,2.7,3.28.27,2.72-.22,5.3-1.84,7.51-2.23,3.04-5.43,3.52-8.85,2.8-3.43-.72-5.1-3.2-5.82-6.41-.23-1.05-.27-2.15-.27-3.23,0-1.98.75-3.17,2.68-3.71,2-.56,4.08-.83,6.01-1.2Z"/>
  <path class="cls-1" d="m24.08,20.43c-.41,1.56-.65,3.19-1.26,4.66-1.49,3.55-4.67,5.23-8.49,4.71-3.73-.51-6.25-3-6.75-6.83-.16-1.24-.14-2.52-.03-3.76.12-1.36.91-2.38,2.22-2.82,4.04-1.38,8.09-1.38,12.08.15,1.71.65,2.08,2.17,2.23,3.9Z"/>
  <path class="cls-1" d="m55.04,11.53c-.01.09-.03.17-.04.26-.05-.04-.1-.07-.16-.11.07-.05.13-.1.2-.16Z"/>
  </g>
</svg>
