<?xml version="1.0" encoding="UTF-8"?>
<svg id="TabIcon_LinkTree" xmlns="http://www.w3.org/2000/svg" viewBox="0 0 49.92 58">
  <defs>
    <style>
      .cls-1 {
        fill: #b7b7b7;
        stroke-width: 0px;
      }
    </style>
  </defs>
  <path class="cls-1" d="m25.15,11.54c1.43-2.44,2.71-5.02,4.35-7.33C31.35,1.62,33.89-.08,37.26,0c3.14.08,5.49,1.56,6.86,4.38,1.39,2.87,1.15,5.72-.91,8.15-1.18,1.39-2.8,2.41-4.16,3.55.93,0,2.14,0,3.35,0,1.34,0,2.67-.03,4.01,0,2.22.05,3.5,1.36,3.51,3.55.01,2.12.01,4.24,0,6.36-.01,1.95-1.21,3.37-3.16,3.4-5.34.08-10.68.02-16.02.05-.79,0-.64-.49-.64-.94,0-3.49-.04-6.99.03-10.48.02-1.12-.36-1.41-1.42-1.39-2.71.06-5.42.05-8.13,0-.96-.02-1.32.29-1.3,1.28.04,3.45-.03,6.91.03,10.37.02.97-.29,1.16-1.18,1.15-4.83-.04-9.66,0-14.49-.02-2.34,0-3.62-1.32-3.63-3.67,0-2,0-4.01,0-6.01.01-2.26,1.39-3.66,3.68-3.68,2.53-.03,5.07,0,7.81,0-.93-.53-1.69-.91-2.39-1.38-2.87-1.91-4.13-4.84-3.49-7.99C6.24,3.63,9.04.88,12.11.25c3.13-.64,5.72.35,7.95,2.5,2.22,2.15,3.49,4.89,4.65,7.69.18.43.35.87.45,1.1Zm-5.76,1.78c.1-.09.19-.18.29-.27-1.14-1.39-2.2-2.87-3.46-4.15-.86-.87-2.03-.73-2.59.03-.53.71-.27,1.66.72,2.41,1.49,1.13,3.21,1.7,5.04,1.97Zm11.28-.29c.09.09.18.18.28.27,2.02-.3,3.91-.93,5.47-2.34.64-.58.88-1.32.32-2.09-.53-.72-1.26-.68-1.99-.34-.24.11-.52.23-.69.43-1.14,1.34-2.26,2.71-3.38,4.06Z"/>
  <path class="cls-1" d="m30.1,44.6c0-4.08.02-8.16-.02-12.24,0-.83.22-1.03,1.04-1.03,4.67.04,9.34.01,14.01.01,1.54,0,2.15.59,2.16,2.11.01,6.39.03,12.79,0,19.18-.01,3.14-2.23,5.31-5.36,5.32-3.65.01-7.3-.02-10.95.02-.73,0-.92-.19-.91-.91.03-4.16.02-8.32.02-12.48h.03Z"/>
  <path class="cls-1" d="m19.22,44.79c0,4-.02,8.01.02,12.01,0,.87-.15,1.22-1.14,1.2-3.45-.07-6.91-.02-10.36-.03-3.04-.01-5.23-2.12-5.25-5.16-.03-6.44-.01-12.87,0-19.31,0-1.53.64-2.14,2.15-2.15,4.55,0,9.1.02,13.66-.02.76,0,.99.19.99.97-.04,4.16-.02,8.32-.02,12.48h-.06Z"/>
</svg>