<?xml version="1.0" encoding="UTF-8"?>
<svg id="TabIcon_Album" xmlns="http://www.w3.org/2000/svg" viewBox="0 0 64 64" data-normalized-viewbox="64">
  <defs>
    <style>
      .cls-1 {
        fill: #b7b7b7;
        stroke-width: 0px;
      }
    </style>
  </defs>
  
  <g transform="translate(7.245 1)">
<path class="cls-1" d="m48.55,52.52c-.83-.36-1.45-.24-2.02.32-.04.08-.06.14-.1.2-.07,1.63-.14,3.53-.14,4.29,0,1.16-.45,1.68-1.63,1.68-11.93-.01-23.86,0-35.78,0-2.39,0-4.13-1.14-4.79-2.97-.96-2.69.86-5.22,4.03-5.61.33-.04,31.42.06,37.6.06,2.61,0,3.61-1.45,3.67-3.9.25-10.32-.02-20.65-.02-30.98,0-3.89.03-7.78,0-11.66-.02-2.5-1.4-3.77-3.91-3.82-.66-.01-1.99,0-1.99,0,0,0,0,0,0,0h0s.04,14.46.02,21.7c0,1.4-1.07,1.91-2.22,1.08-1.22-.88-2.4-1.82-3.57-2.76-.7-.56-1.7-.56-2.41,0-1.11.87-2.24,1.72-3.35,2.59-.51.4-1.04.76-1.71.44-.73-.34-.79-1-.79-1.7.01-6.94.05-21.44.05-21.44h.17s0,0,0,0c-6.49-.01-13.22-.05-19.71-.02C4.04.03.03,4.13.02,10.1c-.01,5.82,0,11.63,0,17.45,0,8.33-.03,16.65,0,24.98.02,5.25,3.8,9.39,8.78,9.42,12.22.08,24.44.04,36.66.02,2.29,0,3.81-1.57,3.89-3.89.04-1.25,0-2.51.02-3.77.01-.74,0-1.44-.81-1.8Z"/>
  </g>
</svg>
