<?xml version="1.0" encoding="UTF-8"?>
<svg id="TabIcon_Wardrobe_" data-name="TabIcon_Wardrobe
" xmlns="http://www.w3.org/2000/svg" viewBox="0 0 46.44 61.93">
  <defs>
    <style>
      .cls-1 {
        fill: #a8b0bf;
      }

      .cls-1, .cls-2 {
        stroke-width: 0px;
      }

      .cls-2 {
        fill: #15324e;
      }
    </style>
  </defs>
  <path class="cls-2" d="m24.43,44.82s-.11-26.33-.1-39.35c0-1.09-.01-2.18.02-3.27.04-1.31.76-2.13,2.04-2.14,4.52-.03,9.03-.12,13.54.03,3.72.13,6.5,3.36,6.49,7.26-.02,11.61-.07,23.22-.1,34.83-.01,4.68,0,9.35-.01,14.03,0,1.87-.23,2.21-2.02,2.71-.52.15-.45.45-.49.8-.18,1.68-.74,2.19-2.4,2.2-1.05,0-2.1.01-3.14-.01-1.41-.04-2.13-.64-2.18-2.03-.03-.81-.37-.89-1.02-.88-7.94,0-15.88,0-23.83-.02-.63,0-.9.12-.97.83-.14,1.57-.78,2.08-2.37,2.1-1.09.02-2.18.03-3.27.01-1.34-.02-2.06-.63-2.13-1.94-.04-.65-.14-.98-.87-1.13C.36,58.58,0,57.59,0,56.38c.02-4.19.02-8.39.03-12.58.02-11.89.05-23.79.07-35.68C.11,2.93,2.99.05,8.2.04c3.71,0,7.42,0,11.13,0,2.54,0,3.06.53,3.05,3.03-.02,13.47-.06,41.75-.06,41.75,0,0-12.87.03-18.63,0-1.11,0-1.5.4-1.48,1.49.05,2.9.01,5.8.02,8.71,0,1.3.37,1.72,1.61,1.72,12.86,0,25.71,0,38.57-.02,1.35,0,1.71-.38,1.72-1.74.02-2.86.01-5.72,0-8.58,0-1.52-.05-1.56-1.57-1.56-5.6,0-11.2.02-16.81.01-.5,0-1.33-.01-1.33-.01Zm-10.22-20.03c-.06,1.5.98,2.7,2.42,2.79,1.29.08,2.57-1.11,2.66-2.47.09-1.4-1.07-2.72-2.46-2.78-1.34-.06-2.56,1.09-2.62,2.47Zm18.25.2c.01-1.42-1.08-2.6-2.45-2.64-1.39-.04-2.61,1.2-2.6,2.63,0,1.4,1.15,2.56,2.53,2.58,1.35.02,2.51-1.16,2.52-2.57Z"/>
  <path class="cls-1" d="m42.57,44.82c1.52,0,1.57.04,1.57,1.56,0,2.86,0,5.72,0,8.58,0,1.36-.37,1.74-1.72,1.74-12.86.02-25.71.02-38.57.02-1.24,0-1.61-.41-1.61-1.72,0-2.9.03-5.8-.02-8.71-.02-1.09.37-1.5,1.48-1.49,5.76.03,33.28,0,38.88,0Zm-22.94,4.36c-1,.03-1.63.62-1.63,1.58,0,.96.6,1.57,1.62,1.58,2.41.02,4.83.02,7.24,0,1.04-.01,1.76-.73,1.69-1.64-.07-1.01-.69-1.5-1.68-1.51-1.17-.01-5.99-.04-7.24-.01Z"/>
  <path class="cls-1" d="m14.21,24.79c.05-1.38,1.27-2.53,2.62-2.47,1.39.06,2.55,1.38,2.46,2.78-.09,1.36-1.36,2.55-2.66,2.47-1.44-.09-2.48-1.29-2.42-2.79Z"/>
  <path class="cls-1" d="m32.46,24.99c-.01,1.41-1.17,2.59-2.52,2.57-1.38-.02-2.52-1.18-2.53-2.58,0-1.44,1.21-2.67,2.6-2.63,1.37.04,2.46,1.22,2.45,2.64Z"/>
  <path class="cls-2" d="m26.87,49.19c.99,0,1.61.49,1.68,1.51.07.91-.66,1.63-1.69,1.64-2.41.03-4.83.02-7.24,0-1.02,0-1.62-.61-1.62-1.58,0-.97.63-1.56,1.63-1.58,1.25-.03,6.07,0,7.24.01Z"/>
</svg>