<?xml version="1.0" encoding="UTF-8"?>
<svg id="TabIcon_LinkTree" xmlns="http://www.w3.org/2000/svg" viewBox="0 0 53.37 62">
  <defs>
    <style>
      .cls-1 {
        fill: #182e50;
        stroke-width: 0px;
      }
    </style>
  </defs>
  <path class="cls-1" d="m26.89,12.34c1.53-2.61,2.89-5.36,4.65-7.84C33.51,1.74,36.23-.08,39.82,0c3.36.08,5.86,1.67,7.33,4.68,1.49,3.06,1.23,6.12-.97,8.71-1.26,1.49-2.99,2.58-4.45,3.79,1,0,2.29,0,3.58,0,1.43,0,2.86-.04,4.28,0,2.38.06,3.74,1.45,3.75,3.8.01,2.27.02,4.53,0,6.8-.01,2.08-1.3,3.61-3.38,3.64-5.71.08-11.42.02-17.13.05-.84,0-.68-.52-.68-1,0-3.74-.05-7.47.03-11.21.02-1.2-.38-1.51-1.52-1.48-2.89.07-5.79.05-8.69,0-1.02-.02-1.41.31-1.39,1.37.05,3.69-.03,7.39.03,11.08.02,1.03-.31,1.24-1.27,1.23-5.16-.04-10.33,0-15.49-.02-2.5,0-3.87-1.41-3.88-3.92,0-2.14,0-4.28,0-6.42.01-2.42,1.48-3.91,3.93-3.93,2.71-.03,5.42,0,8.35,0-1-.57-1.81-.98-2.55-1.47-3.07-2.04-4.42-5.17-3.73-8.54C6.68,3.88,9.67.94,12.94.27c3.34-.68,6.12.38,8.5,2.68,2.38,2.3,3.73,5.23,4.97,8.22.19.46.38.93.48,1.17Zm-6.16,1.9c.1-.1.21-.2.31-.29-1.22-1.49-2.35-3.07-3.7-4.43-.92-.93-2.17-.78-2.77.04-.56.76-.29,1.78.77,2.58,1.6,1.21,3.43,1.82,5.38,2.11Zm12.05-.31c.1.09.2.19.3.28,2.16-.32,4.18-.99,5.84-2.5.68-.62.94-1.41.34-2.23-.57-.77-1.34-.73-2.13-.36-.26.12-.56.25-.73.46-1.22,1.44-2.41,2.89-3.61,4.34Z"/>
  <path class="cls-1" d="m32.17,47.68c0-4.36.03-8.72-.02-13.08,0-.89.23-1.1,1.11-1.1,4.99.04,9.98.01,14.97.01,1.64,0,2.3.63,2.31,2.26.01,6.84.03,13.67,0,20.51-.02,3.36-2.39,5.67-5.73,5.69-3.9.01-7.8-.02-11.7.02-.78,0-.98-.2-.97-.97.04-4.44.02-8.89.02-13.34h.03Z"/>
  <path class="cls-1" d="m20.54,47.88c0,4.28-.02,8.56.02,12.84,0,.93-.16,1.3-1.22,1.28-3.69-.08-7.38-.02-11.07-.04-3.25-.02-5.59-2.26-5.61-5.51-.04-6.88-.01-13.76,0-20.64,0-1.63.69-2.29,2.3-2.3,4.87,0,9.73.02,14.6-.02.81,0,1.06.2,1.05,1.04-.04,4.45-.02,8.89-.02,13.34h-.06Z"/>
</svg>