<?xml version="1.0" encoding="UTF-8"?>
<svg id="TabIcon_Party" xmlns="http://www.w3.org/2000/svg" viewBox="0 0 58.05 62">
  <defs>
    <style>
      .cls-1 {
        fill: #b7b7b7;
        stroke-width: 0px;
      }
    </style>
  </defs>
  <path class="cls-1" d="m52.31,5.05c.04.99-.93,1.92-2.11,1.99-.85.05-1.72-.02-2.55.14-4,.78-6.33,3.52-6.53,7.71-.11,2.33-1.05,4.28-2.49,6.03-.99,1.2-2.15,1.38-3.11.56-.9-.77-.9-2.12.15-3.16,1.37-1.34,1.63-3.05,1.79-4.8.49-5.32,4.63-9.62,9.96-10.3.93-.12,1.85-.29,2.8-.21,1.18.1,2.05.94,2.09,2.03Z"/>
  <path class="cls-1" d="m50.35,24.91c1.93.02,4.6,1.22,6.89,3.31.98.89,1.07,2.17.31,2.96-.75.79-1.98.72-2.95-.18-3.13-2.9-8.96-3.38-11.97,1.2-.74,1.13-1.79,1.4-2.71.79-1.04-.69-1.23-1.85-.43-3.02,2.32-3.39,5.56-5.08,10.85-5.07Z"/>
  <path class="cls-1" d="m30.59,16.8c.05,1.11-.04,2.13-.34,3.11-.35,1.17-1.26,1.42-2.33,1.27-1-.15-1.66-1-1.43-2.06.44-2.04.29-3.92-.69-5.81-.59-1.15,0-2.3,1.1-2.73,1.02-.4,2.02.07,2.57,1.25.75,1.6,1.29,3.24,1.11,4.96Z"/>
  <path class="cls-1" d="m45.24,34.75c2.12.08,3.96.92,5.56,2.25,1.15.95,1.27,2.21.44,3.12-.78.87-1.88.82-3.04-.17-.9-.77-1.92-1.24-3.11-1.31-1.52-.1-2.46-.89-2.4-2.05.06-1.23.93-1.86,2.55-1.85Z"/>
  <path class="cls-1" d="m33.98,5.29c-1.38-.02-2.64-1.31-2.6-2.66C31.44,1.16,32.7-.03,34.16,0c1.33.03,2.55,1.36,2.52,2.74-.03,1.35-1.31,2.56-2.7,2.54Z"/>
  <path class="cls-1" d="m25.44,6c-.04,1.44-1.19,2.45-2.72,2.39-1.49-.06-2.48-1.16-2.43-2.68.05-1.5,1.12-2.5,2.64-2.48,1.48.02,2.55,1.21,2.51,2.77Z"/>
  <path class="cls-1" d="m49.6,16.02c1.48.01,2.54,1.12,2.52,2.64-.03,1.37-1.19,2.52-2.55,2.53-1.43.01-2.6-1.18-2.57-2.62.03-1.53,1.08-2.56,2.61-2.55Z"/>
  <path class="cls-1" d="m39.6,41.05c-1.35-5.29-4.32-9.62-7.97-13.54-2.58-2.77-5.46-5.19-9.09-6.49-3-1.07-5.4-.02-6.77,2.85-2.77,5.82-5.58,11.63-8.34,17.46-2.33,4.9-4.64,9.8-6.91,14.72-.77,1.67-.74,3.34.6,4.77,1.16,1.24,2.9,1.52,4.74.76,1.11-.45,2.19-.95,3.28-1.44,9.08-4.07,18.14-8.18,27.35-11.93,2.34-.96,3.42-2.47,3.38-5.1-.05-.62-.09-1.34-.27-2.06Zm-6.16,2.49c-.68-.12-1.31-.38-1.9-.74-5.09-3.16-8.75-7.56-11.18-13-.28-.62-.46-1.29-.57-1.96-.33-2.11.89-3.1,2.89-2.38,1.01.37,1.95.88,2.81,1.51,4.36,3.21,7.68,7.24,9.72,12.29.31.76.52,1.54.5,2.36-.01,1.56-.75,2.19-2.28,1.92Z"/>
</svg>