<?xml version="1.0" encoding="UTF-8"?>
<svg xmlns="http://www.w3.org/2000/svg" viewBox="0 0 53.92 59.42">
  <defs>
    <style>
      .cls-1 {
        fill: #b7b7b7;
        stroke-width: 0px;
      }
    </style>
  </defs>
  <g id="TabIcon_LinkTree">
    <path class="cls-1" d="m28.1,46.02c0-4.08.02-8.16-.02-12.24,0-.83.22-1.03,1.04-1.03,4.67.04,15.34.01,20.01.01,1.54,0,2.15.59,2.16,2.11.01,6.39.03,12.79,0,19.18-.01,3.14-2.23,5.31-5.36,5.32-3.65.01-11.3-.02-14.95.02-.73,0-2.92-.19-2.91-.91.03-4.16.02-8.32.02-12.48h.03Z"/>
    <path class="cls-1" d="m25.22,46.21c0,4-.02,8.01.02,12.01,0,.87-.15,1.22-1.14,1.2-3.45-.07-12.91-.02-16.36-.03-3.04-.01-5.23-2.12-5.25-5.16-.03-6.44-.01-12.87,0-19.31,0-1.53.64-2.14,2.15-2.15,4.55,0,15.1.02,19.66-.02.76,0,.99.19.99.97-.04,4.16-.02,8.32-.02,12.48h-.06Z"/>
  </g>
  <g id="_图层_2" data-name="图层 2">
    <g>
      <path class="cls-1" d="m26.58,18.06c-.19,0-.34.01-.49.03.32,0,.96,0,1.19,0-.04,0-.09-.01-.13-.02-.13,0-.3,0-.57-.01Z"/>
      <path class="cls-1" d="m53.91,21.05c-.01-2.2-1.29-3.5-3.51-3.55-1.33-.03-2.67,0-4.01,0-1.21,0-2.42,0-3.35,0,1.36-1.14,2.98-2.16,4.16-3.55,2.06-2.43,2.3-6.28.91-9.15-1.37-2.82-4.72-4.3-7.86-4.38-3.36-.08-6.91,2.62-8.75,5.21-1.65,2.31-2.92,4.89-4.35,7.33-.09-.23-.27-.66-.45-1.1-1.16-2.8-2.43-5.54-4.65-7.69-2.22-2.15-5.42-5.64-12.95-3.5-3.01.85-4.86,3.38-5.49,6.45-.64,3.15,2.62,7.07,5.49,8.99.7.47,1.46.84,2.39,1.38-2.75,0-5.28-.02-7.81,0-2.29.02-3.67,1.42-3.68,3.68,0,2,0,4.01,0,6.01,0,2.35,1.28,3.66,3.63,3.67,4.83.01,15.66-.02,20.49.02.9,0,1.2-.18,1.18-1.15-.06-3.45.01-6.91-.03-10.37-.01-.8.23-1.15.82-1.25-.3,0-.3-.02.61-.04.17,0,.31,0,.45.02.25,0,.26.01.13.02.62.1.86.47.84,1.35-.07,3.49-.03,6.99-.03,10.48,0,.45-.15.94.64.94,5.34-.03,16.68.03,22.02-.05,1.94-.03,3.14-1.45,3.16-3.4.01-2.12.01-4.24,0-6.36Zm-30.28-4.17c-4.1-.61-7.97-1.89-11.33-4.44-2.23-1.69-2.81-3.83-1.63-5.43,1.26-1.71,3.89-2.04,5.83-.08,2.83,2.88,5.21,6.2,7.78,9.33-.22.21-.43.41-.65.62Zm6.99-.05c-.21-.2-.41-.4-.62-.6,2.53-3.05,5.04-6.12,7.61-9.14.38-.44,1-.71,1.55-.97,1.66-.77,3.3-.87,4.49.76,1.26,1.73.72,3.4-.72,4.7-3.49,3.16-7.75,4.58-12.3,5.26Z"/>
    </g>
  </g>
</svg>