<?xml version="1.0" encoding="UTF-8"?>
<svg id="TabIcon_Refreshment" xmlns="http://www.w3.org/2000/svg" viewBox="0 0 46.23 62">
  <defs>
    <style>
      .cls-1 {
        fill: #b7b7b7;
        stroke-width: 0px;
      }
    </style>
  </defs>
  <path class="cls-1" d="m23.08,17.54c6.23,0,12.47.04,18.7-.03,1.4-.02,1.71.5,1.52,1.75-.23,1.48-.36,2.97-.55,4.46-.15,1.21-.56,2.41.97,3.22.39.2.51,1.29.44,1.93-.62,5.25-1.29,10.5-2,15.74-.15,1.13-.91,1.82-2.08,1.96-.42.05-.84.04-1.26.04-10.59,0-21.19,0-31.78,0-2.3,0-2.86-.48-3.17-2.79-.67-4.92-1.32-9.84-2-14.75-.17-1.19.14-2.08,1.16-2.79.3-.21.53-.81.49-1.2-.17-1.91-.48-3.81-.68-5.72-.18-1.75-.06-1.87,1.68-1.87,6.19,0,12.38,0,18.56,0,0,.02,0,.03,0,.05Z"/>
  <path class="cls-1" d="m23.03,15.1c-6.61,0-13.21,0-19.82,0-2.64,0-3.22-.58-3.2-3.22,0-.52-.02-1.03.02-1.55.11-1.5.9-2.86,2.3-3,2-.2,2.17-1.46,2.45-2.87.1-.5.21-1,.33-1.5C5.58.83,6.55.02,8.73.01,14.64,0,20.54,0,26.45,0c3.7,0,7.4,0,11.11.01,2.12.01,3.08.81,3.54,2.85.11.5.21,1.01.31,1.51.3,1.43.37,2.81,2.5,2.95,1.43.09,2.2,1.44,2.28,2.98.23,4.38-.21,4.86-4.6,4.84-3.09-.01-6.19-.04-9.28-.05-3.09,0-6.19,0-9.28,0h0Z"/>
  <path class="cls-1" d="m23.21,48.85c5.06,0,10.12.03,15.18-.02,1.1-.01,1.36.34,1.22,1.39-.34,2.5-.57,5.02-.87,7.53-.34,2.9-1.81,4.24-4.73,4.24-7.31.01-14.62.01-21.93,0-2.97,0-4.29-1.17-4.64-4.1-.31-2.55-.52-5.12-.89-7.67-.16-1.08.11-1.4,1.2-1.39,5.15.04,10.31.02,15.46.02Z"/>
</svg>