<?xml version="1.0" encoding="UTF-8"?>
<svg id="TabIcon_Player" xmlns="http://www.w3.org/2000/svg" viewBox="0 0 48.8 62">
  <defs>
    <style>
      .cls-1 {
        fill: #b7b7b7;
        stroke-width: 0px;
      }
    </style>
  </defs>
  <path class="cls-1" d="m14.01,32.43c-.21-4.89-.41-9.77-.62-14.66-.13-3.21-.28-6.41-.4-9.62-.11-3.12,2.17-5.18,4.88-4.45,1.67.45,2.76,1.82,2.87,3.75.27,4.5.5,9,.74,13.5.02.3-.05.64.06.9.17.41.46.78.7,1.16.18-.39.52-.77.53-1.16.15-5.85.27-11.7.39-17.56C23.21,1.76,24.82,0,27.06,0c2.09,0,3.73,1.53,3.87,3.77.1,1.47.03,2.95.02,4.42-.05,4.51-.12,9.02-.13,13.53,0,.43.34.85.51,1.28.24-.44.66-.86.7-1.31.38-4.97.71-9.94,1.04-14.92.1-1.53.7-2.78,2.13-3.47,1.21-.59,2.45-.54,3.58.26,1.35.96,1.63,2.36,1.54,3.91-.31,5.32-.62,10.64-.88,15.97-.03.52.27,1.07.41,1.6.24-.49.62-.96.7-1.47.53-3.38.93-6.78,1.51-10.15.16-.93.62-1.92,1.24-2.62.89-1.01,2.17-1.25,3.46-.72,1.34.55,2.09,1.64,2.03,3.05-.09,2.12-.35,4.23-.62,6.33-.91,7.09-1.85,14.17-2.77,21.25-.38,2.91-1.48,5.51-3.34,7.76-.23.27-.72.46-1.09.47-8.59.01-17.17,0-25.76-.05-.48,0-1.05-.3-1.43-.64-4.13-3.73-6.44-8.76-9.47-13.28-1.18-1.76-2.29-3.57-3.43-5.36-1.36-2.15-1.14-4.55.53-6.02,1.69-1.49,4.34-1.47,6.15.3,1.19,1.17,2.09,2.64,3.06,4.01,1.07,1.51,2.06,3.08,3.09,4.62.1-.02.2-.05.3-.07Z"/>
  <path class="cls-1" d="m43.55,53.41c-.02-1.77-.9-2.64-2.63-2.64-4.38,0-8.75,0-13.13,0h0c-4.42.01-8.84,0-13.26.02-1.8,0-2.63.85-2.64,2.62-.02,1.99-.03,3.99,0,5.98.03,1.6,1.02,2.6,2.62,2.6,8.75.02,17.5.02,26.25,0,1.8,0,2.78-1.05,2.8-2.86.02-1.91.01-3.81,0-5.72Zm-5.59,5.4c-1.38.02-2.52-1.15-2.51-2.57.01-1.36,1.11-2.46,2.47-2.47,1.37-.02,2.55,1.18,2.52,2.56-.02,1.33-1.15,2.46-2.49,2.48Z"/>
</svg>