<?xml version="1.0" encoding="UTF-8"?>
<svg id="TabIcon_Wardrobe_" data-name="TabIcon_Wardrobe
" xmlns="http://www.w3.org/2000/svg" viewBox="0 0 64 64" data-normalized-viewbox="64">
  <defs>
    <style>
      .cls-1 {
        fill: #b7b7b7;
        stroke-width: 0px;
      }
    </style>
  </defs>
  
  <g transform="translate(8.78 1.035)">
<path class="cls-1" d="m17.32.04c-3.71,0-5.42,0-9.13,0C2.99.05.11,2.93.1,8.12c-.02,11.89-.05,23.79-.07,35.68,0,4.19,0,8.39-.03,12.58,0,1.21.36,2.21,1.64,2.47.73.15.84.48.87,1.13.07,1.31.78,1.92,2.13,1.94,1.09.01,2.18,0,3.27-.01,1.6-.02,2.23-.54,2.37-2.1.06-.72.33-.83.97-.83,3.68.01,5.35.02,9.03.02,0,0,.09-42.46.11-55.92,0-2.51-.52-3.03-3.05-3.03Zm-4.03,28.86c-2.16-.13-3.72-1.93-3.64-4.19.08-2.07,1.91-3.79,3.93-3.7,2.08.1,3.83,2.07,3.69,4.18-.13,2.05-2.04,3.83-3.98,3.71Z"/>
  <path class="cls-1" d="m39.94.09c-4.51-.15-8.03-.07-12.54-.03-1.28,0-1.99.83-2.04,2.14-.03,1.09-.02,2.18-.02,3.27-.01,13.02-.07,53.53-.07,53.53,3.6,0,6.2,0,9.8,0,.66,0,.99.07,1.02.88.05,1.4.77,2,2.18,2.03,1.05.03,2.1.02,3.14.01,1.66,0,2.22-.52,2.4-2.2.04-.35-.04-.65.49-.8,1.79-.5,2.02-.84,2.02-2.71,0-4.68,0-9.35.01-14.03.03-11.61.08-23.22.1-34.83,0-3.9-2.77-7.14-6.49-7.26Zm-7.7,28.78c-2.07-.03-3.78-1.77-3.79-3.87-.01-2.15,1.82-4.01,3.9-3.95,2.05.05,3.69,1.82,3.67,3.96-.02,2.12-1.75,3.88-3.78,3.86Z"/>
  </g>
</svg>
