<?xml version="1.0" encoding="UTF-8"?>
<svg id="TabIcon_Theme" xmlns="http://www.w3.org/2000/svg" viewBox="0 0 62 33.04">
  <defs>
    <style>
      .cls-1 {
        fill: #b7b7b7;
        stroke-width: 0px;
      }
    </style>
  </defs>
  <path class="cls-1" d="m31.02,22.36c-6.64,0-13.28,0-19.92,0-5.91,0-10.22-3.89-11.01-9.92C-.61,7.12,2.99,1.77,8.27.4,9.29.14,10.37.02,11.43.02,24.62,0,37.82,0,51.02,0c6.17,0,10.95,4.87,10.98,11.17.03,6.28-4.7,11.15-10.94,11.18-6.68.03-13.36,0-20.04,0h0Z"/>
  <path class="cls-1" d="m51.06,23.58c-6.68.03-13.36,0-20.04,0h0c-6.64,0-13.28.01-19.92,0-5.91,0-10.2-3.88-11.01-9.9-.12.88-.12,1.78,0,2.68.8,6.03,5.1,9.92,11.01,9.92,6.64,0,13.28,0,19.92,0h0c6.68,0,13.36.02,20.04-.01,6.24-.03,10.97-4.89,10.94-11.18,0-.44-.03-.87-.08-1.3-.62,5.59-5.1,9.74-10.86,9.77Z"/>
  <path class="cls-1" d="m5.61,24.77c2.63.13,5.18.29,7.73.35.74.02,1.01.18.98.96-.06,1.47,0,2.95-.02,4.43-.02,1.56-.88,2.46-2.41,2.5-1.35.03-2.71.04-4.06,0-1.26-.04-2.17-.82-2.21-2.04-.07-2.16-.02-4.33-.02-6.2Z"/>
  <path class="cls-1" d="m56.16,28.01c0,.94.05,1.88-.01,2.82-.08,1.28-.93,2.13-2.21,2.17-1.39.05-2.78.06-4.17,0-1.29-.04-2.18-.88-2.23-2.15-.07-1.67,0-3.35-.04-5.03-.02-.81.5-.66.98-.68,2.07-.1,4.16-.1,6.22-.36,1.49-.19,1.47-.34,1.47,1.13,0,.69,0,1.39,0,2.08h-.01Z"/>
</svg>