<?xml version="1.0" encoding="UTF-8"?>
<svg id="TabIcon_Album" xmlns="http://www.w3.org/2000/svg" viewBox="0 0 49.41 62">
  <defs>
    <style>
      .cls-1 {
        fill: #a8b0bf;
      }

      .cls-1, .cls-2 {
        stroke-width: 0px;
      }

      .cls-2 {
        fill: #15324e;
      }
    </style>
  </defs>
  <path class="cls-2" d="m46.54,52.85c.56-.57,1.18-.69,2.02-.32.81.36.82,1.06.81,1.8-.02,1.26.02,2.51-.02,3.77-.08,2.32-1.6,3.88-3.89,3.89-12.22.02-24.44.06-36.66-.02C3.82,61.92.04,57.78.02,52.53c-.03-8.33,0-16.65,0-24.98,0-5.82,0-11.63,0-17.45C.03,4.13,4.04.03,9.98,0c6.49-.03,13.22.01,19.71.02.5.57.1,1.27.11,1.92.01,6.11,0,12.22.02,18.33,0,.81-.27,1.81.63,2.28.99.52,1.6-.43,2.28-.91.79-.55,1.5-1.21,2.31-1.74,1.15-.74,2.03-.72,3.12.09.87.65,1.72,1.33,2.59,1.99.53.39,1.08.96,1.79.65.77-.33.57-1.14.57-1.78.02-6.28,0-12.56.02-18.84,0-.65.37-1.92.37-1.92,0,0,1.33-.01,1.99,0,2.5.05,3.88,1.32,3.91,3.82.03,3.89,0,7.78,0,11.66,0,10.33-.02,20.65.02,30.98,0,1.97-.69,3.3-2.61,3.91-.65.4-1.38.3-2.08.3-11.6,0-23.2,0-34.79,0-1.1,0-2.18.06-3.21.48-1.47.59-2.44,1.88-2.4,3.37.04,1.54.76,2.71,2.17,3.42.77.38,1.59.49,2.44.49,11.68,0,23.36,0,35.05,0,1.68,0,1.86-.2,1.88-1.89.01-.71-.03-1.42.03-2.13.04-.55.09-.45.65-1.67Z"/>
  <path class="cls-1" d="m46.31,57.34c0,1.16-.45,1.68-1.63,1.68-11.93-.01-23.86,0-35.78,0-2.39,0-4.13-1.14-4.79-2.97-.96-2.69.86-5.22,4.03-5.61.37-.05.75-.03,1.13-.03,12.1,0,37.29.01,37.29.01,0,0-.26,5.52-.25,6.93Z"/>
  <path class="cls-1" d="m43.49.12s.04,14.46.02,21.7c0,1.4-1.07,1.91-2.22,1.08-1.22-.88-2.4-1.82-3.57-2.76-.81-.65-1.58-.65-2.38-.02-1.12.88-2.25,1.73-3.37,2.61-.51.4-1.04.76-1.71.44-.73-.34-.79-1-.79-1.7.01-6.94.05-21.44.05-21.44l13.97.09Z"/>
</svg>