<?xml version="1.0" encoding="UTF-8"?>
<svg id="TabIcon_Headwear" xmlns="http://www.w3.org/2000/svg" viewBox="0 0 64 64" data-normalized-viewbox="64">
  <defs>
    <style>
      .cls-1 {
        fill: #b7b7b7;
        stroke-width: 0px;
      }
    </style>
  </defs>
  
  <g transform="translate(1 11.46)">
<path class="cls-1" d="m31.02,26.56c-5.01-.03-9.93-.6-14.61-2.5-1.43-.58-2.77-1.42-4.07-2.27-1.2-.78-1.62-1.92-1.23-3.4.94-3.54,1.69-7.13,2.71-10.63.47-1.6,1.19-3.23,2.18-4.57C18.33.08,21.93-.74,25.55.67c1.54.6,3.11,1.25,4.72,1.55,2,.38,3.83-.53,5.63-1.34,1.84-.83,3.74-1.18,5.72-.61,3.16.91,4.99,3.19,5.84,6.21,1.16,4.15,2.14,8.35,3.16,12.54.28,1.16-.21,2.16-1.18,2.72-1.91,1.09-3.82,2.24-5.87,2.99-4.03,1.47-8.27,1.83-12.54,1.82Z"/>
  <path class="cls-1" d="m30.73,41.08c-6.74-.09-13.93-.94-20.83-3.45-2.77-1.01-5.44-2.25-7.63-4.3C.13,31.33-.55,28.82.45,26.56c.72-1.63,1.99-2.81,3.57-3.52,1.51-.68,3.11-1.18,4.71-1.64,1.06-.31,1.61.19,1.3,1.27-.81,2.76.6,4.33,2.71,5.63,3.09,1.9,6.52,2.77,10.05,3.32,7.05,1.09,14.06.96,20.93-1.03,2.09-.61,4.08-1.68,5.97-2.79,1.81-1.06,2.64-2.7,1.96-4.92-.38-1.26.22-1.85,1.49-1.47,1.83.55,3.75.99,5.39,1.92,4.23,2.4,4.62,6.83,1.04,10.12-2.32,2.13-5.14,3.35-8.06,4.4-6.54,2.36-13.32,3.14-20.78,3.23Z"/>
  </g>
</svg>
