<?xml version="1.0" encoding="UTF-8"?>
<svg id="TabIcon_Dog" xmlns="http://www.w3.org/2000/svg" viewBox="0 0 64 64" data-normalized-viewbox="64">
  <defs>
    <style>
      .cls-1 {
        fill: #b7b7b7;
        stroke-width: 0px;
      }
    </style>
  </defs>
  
  <g transform="translate(1 2.595)">
<path class="cls-1" d="m52.78,48.18c-.02,7.82-7.48,12.79-15.11,9.63-2.54-1.06-5.03-2.31-7.86-1.78-1.66.31-3.3.89-4.87,1.52-2.69,1.07-5.38,1.73-8.25.84-5.74-1.78-8.86-7.85-7.2-13.93.73-2.67,2.25-4.83,4-6.91,1.7-2.01,3.19-4.2,4.89-6.22,1.57-1.87,3.06-3.92,5-5.33,5.54-4.03,12.57-3.52,17.16,1.57,3.86,4.28,7.18,9.06,10.56,13.75,1.33,1.85,1.75,4.17,1.69,6.86Z"/>
  <path class="cls-1" d="m28.82,12.21c-.09,1.84-.47,4.1-1.84,6.08-2.41,3.5-6.54,4.04-9.74,1.27-4.35-3.77-5.47-11.42-2.37-16.29,2.57-4.04,7.56-4.4,10.69-.77,2.17,2.52,3.24,5.55,3.27,9.71Z"/>
  <path class="cls-1" d="m49.19,9.04c-.08,3.4-.84,6.13-2.57,8.54-1.85,2.57-4.23,4.3-7.55,3.58-3.32-.72-4.79-3.32-5.4-6.39-.84-4.28.14-8.2,2.82-11.64,2.31-2.96,5.87-3.87,8.6-2.28,2.16,1.26,3.15,3.33,3.74,5.62.25.98.28,2.01.36,2.58Z"/>
  <path class="cls-1" d="m14.49,27.11c-.3.89-.57,2.59-1.38,3.97-1.68,2.85-4.82,3.52-7.73,1.96C.92,30.66-1.32,23.97.81,19.37c1.71-3.68,5.6-4.75,8.91-2.37,3.17,2.28,4.42,5.57,4.76,10.11Z"/>
  <path class="cls-1" d="m62,23.3c-.17,3.64-1.52,6.94-4.72,9.25-3.8,2.74-8.43,1.07-9.42-3.47-.99-4.53.39-8.45,3.88-11.5,1.84-1.61,4.07-2.32,6.46-1.36,2.48.99,3.36,3.16,3.73,5.61.06.41.05.83.08,1.47Z"/>
  </g>
</svg>
