<?xml version="1.0" encoding="UTF-8"?>
<svg id="TabIcon_Settings" xmlns="http://www.w3.org/2000/svg" viewBox="0 0 64 64" data-normalized-viewbox="64">
  <defs>
    <style>
      .cls-1 {
        fill: #b7b7b7;
        stroke-width: 0px;
      }
    </style>
  </defs>
  
  <g transform="translate(1.14 1)">
<path class="cls-1" d="m.01,31.02c0-1.03-.02-2.07,0-3.1.05-1.94,1.29-3.49,3.17-3.26,3.44.44,5.01-1.21,5.92-4.2.32-1.07.32-1.91-.42-2.73-.66-.73-1.38-1.42-1.99-2.2-1.04-1.34-.96-2.8.21-4.01,1.34-1.39,2.69-2.77,4.08-4.11,1.45-1.41,2.99-1.45,4.53-.1,4.06,3.54,2.71,2.53,7.35.78.64-.24,1.11-1.32,1.35-2.1.23-.74.04-1.6.07-2.41.08-2.18,1.4-3.52,3.57-3.56,2.02-.03,4.04-.03,6.06.01,2.22.05,3.66,1.36,3.42,3.57-.31,2.96.76,4.52,3.6,5.47,1.66.55,2.73.52,3.95-.68,2.63-2.58,4.08-3.29,7.22.2.87.97,1.86,1.82,2.76,2.77,1.28,1.36,1.32,2.79.13,4.22-.58.69-1.19,1.35-1.81,1.99-.86.89-.99,1.86-.45,2.95.26.52.47,1.07.68,1.61.88,2.27,1.27,2.54,3.78,2.55.49,0,.99-.02,1.48.02,1.8.14,2.96,1.35,3,3.17.04,2.07.03,4.13,0,6.2-.02,1.99-1.29,3.56-3.26,3.29-3.44-.46-5,1.18-5.91,4.16-.33,1.07-.29,1.93.4,2.75.61.72,1.3,1.37,1.9,2.1,1.03,1.26,1.02,2.85-.11,4.04-1.48,1.56-3.02,3.08-4.59,4.56-1.19,1.12-2.58,1.12-3.91.08-.78-.61-1.49-1.3-2.21-1.97-.81-.75-1.68-.98-2.69-.4-.43.24-.89.44-1.34.63-2.86,1.22-2.88,1.24-2.85,4.4.03,3.18-1.08,4.3-4.25,4.31-1.71,0-3.41.01-5.12-.01-2.03-.03-3.58-1.3-3.3-3.24.53-3.56-1.21-5.19-4.27-6.14-.96-.3-1.74-.32-2.49.35-.74.66-1.45,1.34-2.2,1.99-1.4,1.21-3.02,1.22-4.36-.04-1.44-1.35-2.84-2.75-4.21-4.17-1.33-1.39-1.33-2.85-.09-4.33.03-.03.06-.07.09-.1,3.72-3.95,2.48-3.04.85-7.45-.24-.64-1.31-1.09-2.1-1.35-.64-.22-1.42-.04-2.14-.05-2.29-.02-3.51-1.2-3.55-3.46-.02-.99,0-1.98,0-2.96Zm30.83-12.43c-6.81,0-12.43,5.61-12.45,12.41-.02,6.75,5.55,12.34,12.32,12.37,6.79.03,12.36-5.61,12.33-12.48-.03-6.77-5.52-12.3-12.2-12.3Z"/>
  </g>
</svg>
